<svg width="81" height="24" viewBox="0 0 81 24" fill="none" xmlns="http://www.w3.org/2000/svg">
<path d="M9.21075 3.49513C7.35301 2.67351 6.24876 2.34747 5.1575 2.34747C4.00128 2.34747 3.27378 2.7648 3.27378 3.40384C3.27378 5.33398 9.79535 4.78624 9.79535 9.25947C9.79535 11.7243 7.74274 13.1458 4.88468 13.1458C2.63721 13.1458 1.53296 12.559 0.272815 11.9069V9.1421C2.10457 10.368 3.2348 10.7984 4.63785 10.7984C5.87201 10.7984 6.52157 10.368 6.52157 9.6116C6.52157 7.51191 0 8.28136 0 3.67771C0 1.46065 1.9097 0 4.88468 0C6.31371 0 7.61283 0.299956 9.22374 0.991156V3.49513H9.21075Z" fill="#00A651"/>
<path d="M18.3304 12.559C17.2391 12.9502 16.3297 13.1459 15.4074 13.1459C12.3674 13.1459 10.4058 11.3722 10.4058 8.67262C10.4058 6.02519 12.4454 4.14722 15.2904 4.14722C16.1738 4.14722 17.2911 4.36892 18.2005 4.708V6.74248C17.486 6.36427 16.6675 6.15561 15.992 6.15561C14.3681 6.15561 13.3158 7.13372 13.3158 8.65958C13.3158 10.1985 14.3421 11.2157 15.901 11.2157C16.5506 11.2157 17.1352 11.0592 18.3434 10.6158V12.559H18.3304Z" fill="#00A651"/>
<path d="M43.7025 4.13428C41.0393 4.13428 39.1426 6.0253 39.1426 8.68576C39.1426 11.3593 41.1172 13.1329 44.1572 13.1329C44.8327 13.1329 46.4566 13.1329 48.0156 11.9853V10.2899C46.7424 11.2028 45.898 11.5158 44.8197 11.5158C43.1049 11.5158 42.0656 10.629 41.9617 9.10309H48.1714C48.2884 5.93401 46.2228 4.13428 43.7025 4.13428ZM42.0136 7.66853C42.1305 6.46871 42.8191 5.76447 43.8844 5.76447C44.9366 5.76447 45.6512 6.48175 45.7551 7.66853H42.0136Z" fill="#00A651"/>
<path d="M51.9261 4.29053H49.2109V12.9762H51.9261V4.29053Z" fill="#00A651"/>
<path d="M59.4736 0.156494V4.6819C58.7461 4.32978 58.0056 4.13416 57.2261 4.13416C54.7578 4.13416 53.043 5.97301 53.043 8.63348C53.043 11.2287 54.7578 13.1458 57.0832 13.1458C58.0056 13.1458 58.7201 12.8981 59.4866 12.2851V12.9893H62.2018V0.169534H59.4736V0.156494ZM59.4736 10.6027C58.915 11.1114 58.4343 11.32 57.8627 11.32C56.5896 11.32 55.7711 10.2637 55.7711 8.68564C55.7711 6.95112 56.5766 5.94693 57.9406 5.94693C58.4343 5.94693 59.0709 6.16863 59.4606 6.45554V10.6027H59.4736Z" fill="#00A651"/>
<path d="M67.8919 4.13428C65.2287 4.13428 63.332 6.0253 63.332 8.68576C63.332 11.3593 65.3067 13.1329 68.3466 13.1329C69.0222 13.1329 70.6461 13.1329 72.205 11.9853V10.2899C70.9319 11.2028 70.0874 11.5158 68.9962 11.5158C67.2943 11.5158 66.2421 10.629 66.1511 9.10309H72.3609C72.4778 5.93401 70.4122 4.13428 67.8919 4.13428ZM66.2031 7.66853C66.32 6.46871 67.0085 5.76447 68.0738 5.76447C69.1261 5.76447 69.8406 6.48175 69.9575 7.66853H66.2031Z" fill="#00A651"/>
<path d="M76.4142 6.78156H76.4532C77.2586 4.96879 78.155 4.12109 79.2073 4.12109C79.7529 4.12109 80.2206 4.32976 81.0001 4.91663L80.2466 7.32931C79.5321 6.87285 79.0644 6.69027 78.6357 6.69027C77.6354 6.69027 76.9988 7.62926 76.4012 9.22033V12.9632H73.686V4.27759H76.4012V6.78156H76.4142Z" fill="#00A651"/>
<path d="M52.0556 0.639099C52.3154 1.31726 51.8478 2.25624 51.0293 2.73878C50.2109 3.22132 49.3405 3.06482 49.0936 2.3997C48.8338 1.72154 49.2885 0.782554 50.1069 0.300018C50.9254 -0.182518 51.7958 -0.0260186 52.0556 0.639099Z" fill="#00A651"/>
<path d="M28.1131 7.45974C28.1131 5.11227 26.5151 4.1472 24.9432 4.1472C23.8779 4.1472 22.9945 4.60365 22.2151 5.5948H22.1761V0.156494H19.4609V12.9633H22.1761V7.45974C22.8127 6.53379 23.3583 6.14255 23.9949 6.14255C24.8393 6.14255 25.3979 6.74246 25.3979 8.04661V11.0983C26.3073 10.6288 27.2297 10.3419 28.1131 10.2376V7.45974Z" fill="#00A651"/>
<path d="M34.9205 4.13428C33.8162 4.13428 32.9718 4.5516 32.1014 5.54276V4.30382H29.3862V10.2116C30.3216 10.3029 31.5298 10.7333 32.1014 11.4506V7.39466C32.8159 6.32525 33.3226 5.96009 33.9981 5.96009C34.7646 5.96009 35.3492 6.46871 35.3492 7.69461V12.9634H38.0643V7.45986C38.0773 4.90373 36.2716 4.13428 34.9205 4.13428Z" fill="#00A651"/>
<path d="M39.5714 15.4541H36.4146V17.6972H39.4545V18.6623H36.4146V20.9837H39.6624V21.9488H35.3623V14.489H39.5714V15.4541Z" fill="#00A651"/>
<path d="M43.1049 14.489H42.1436V21.9618H43.1049V14.489Z" fill="#00A651"/>
<path d="M46.5608 19.6405H50.0034C50.0034 17.8147 49.172 16.9409 47.8729 16.9409C46.5218 16.9409 45.5864 17.9451 45.5864 19.4318C45.5864 20.8012 46.4309 22.0532 47.9508 22.0532C48.7823 22.0532 49.3149 21.8706 49.9125 21.4663V20.5273C49.3409 20.9055 48.7823 21.1272 48.1977 21.1272C47.2753 21.1142 46.7167 20.6186 46.5608 19.6405ZM47.8989 17.7756C48.5874 17.7756 49.0031 18.2451 49.0421 18.9884H46.5867C46.7167 18.219 47.1584 17.7756 47.8989 17.7756Z" fill="#00A651"/>
<path d="M56.317 18.3233C55.7583 17.9451 55.3946 17.8277 54.9659 17.8277C54.0825 17.8277 53.4719 18.5059 53.4719 19.5101C53.4719 20.5273 54.1215 21.1403 55.1348 21.1403C55.5505 21.1403 55.9402 21.036 56.4339 20.8142V21.7663C56.1091 21.9228 55.4855 22.0532 54.9789 22.0532C53.5109 22.0532 52.4976 21.049 52.4976 19.6014C52.4976 17.9712 53.4199 16.9409 54.9139 16.9409C55.4855 16.9409 55.8623 17.0713 56.33 17.28V18.3233H56.317Z" fill="#00A651"/>
<path d="M60.7211 17.0323H62.2671V17.9061H60.7211V20.4361C60.7211 21.0099 61.1368 21.1795 61.4226 21.1795C61.7734 21.1795 62.1371 21.0621 62.5269 20.8143V21.7272C62.1891 21.9098 61.6695 22.0533 61.3447 22.0533C60.2924 22.0533 59.7598 21.4012 59.7598 20.5144V17.9191H58.9023V17.8148L60.7211 16.0281V17.0323Z" fill="#00A651"/>
<path d="M65.9696 17.0321V18.1667H65.9826C66.4763 17.2929 66.944 16.9277 67.3987 16.9277C67.7884 16.9277 68.1652 17.1103 68.5679 17.5016L68.0612 18.3623C67.7624 18.0754 67.3857 17.8667 67.1518 17.8667C66.4893 17.8667 65.9696 18.5449 65.9696 19.3926V21.9618H65.0083V17.0321H65.9696Z" fill="#00A651"/>
<path d="M78.4802 18.3233C77.9215 17.9451 77.5448 17.8277 77.1291 17.8277C76.2457 17.8277 75.6351 18.5059 75.6351 19.5101C75.6351 20.5273 76.2846 21.1403 77.285 21.1403C77.7007 21.1403 78.0904 21.036 78.5841 20.8142V21.7663C78.2463 21.9228 77.6357 22.0532 77.1161 22.0532C75.6611 22.0532 74.6348 21.049 74.6348 19.6014C74.6348 17.9712 75.5701 16.9409 77.0511 16.9409C77.6227 16.9409 77.9995 17.0713 78.4672 17.28V18.3233H78.4802Z" fill="#00A651"/>
<path d="M72.1015 17.0322H71.1401V21.9619H72.1015V17.0322Z" fill="#00A651"/>
<path d="M72.1268 15.2584C72.2177 15.4932 72.0618 15.8322 71.763 16.0018C71.4642 16.1713 71.1654 16.1192 71.0745 15.8844C70.9836 15.6497 71.1525 15.3106 71.4383 15.141C71.7371 14.9715 72.0488 15.0237 72.1268 15.2584Z" fill="#00A651"/>
<path d="M29.464 17.6713L29.7628 16.6019H32.426C32.7507 15.05 32.4909 13.6154 31.5556 12.6764C29.6588 10.7724 25.6965 11.4244 22.7475 14.2545C22.2928 14.6979 21.9031 15.1674 21.5394 15.6629H23.1503L22.7735 16.7323H20.8508C20.669 17.0714 20.5001 17.4105 20.3572 17.7496H22.6306L22.2669 18.819H20.0324C19.6556 20.4492 19.8895 21.975 20.8508 22.9401C22.7216 24.8181 26.6709 24.153 29.6199 21.3229C30.1395 20.8274 30.5682 20.2927 30.945 19.7449H28.8794L29.1912 18.6755H31.6075C31.7894 18.3364 31.9453 17.9974 32.0752 17.6583H29.464V17.6713ZM28.8794 15.6629C28.7105 15.6629 28.6325 15.689 28.5676 15.7673C28.5416 15.7933 28.5286 15.8325 28.5156 15.8846L27.6452 19.1841C27.4374 20.3448 26.0213 21.4925 24.1766 21.4925H23.1762H21.6173L22.059 19.7971H23.7089C23.8778 19.7971 24.0077 19.7319 24.1246 19.6145C24.1636 19.5623 24.2155 19.4971 24.2285 19.4189L24.9171 16.5367C25.1249 15.376 26.3331 14.098 28.1779 14.098H30.8021L30.4643 15.6629H28.8794Z" fill="#00A651"/>
</svg>
