<svg width="40" height="40" viewBox="0 0 40 40" fill="none" xmlns="http://www.w3.org/2000/svg">
<path d="M27.9882 2.9165H11.2501C10.7898 2.9165 10.4167 3.28959 10.4167 3.74984V36.2498C10.4167 36.7101 10.7898 37.0832 11.2501 37.0832H35.4167C35.877 37.0832 36.2501 36.7101 36.2501 36.2498V11.1783C36.2501 10.9573 36.1623 10.7454 36.006 10.5891L28.5775 3.16059C28.4212 3.0043 28.2092 2.9165 27.9882 2.9165Z" fill="white" stroke="black" stroke-width="1.66667" stroke-miterlimit="10"/>
<path d="M27.9167 2.9165V10.4165C27.9167 10.8768 28.2898 11.2498 28.7501 11.2498H36.2501" stroke="black" stroke-width="1.66667" stroke-miterlimit="10"/>
<path d="M32.9167 25.4168H20V24.5835H32.9167C33.1468 24.5835 33.3333 24.77 33.3333 25.0002C33.3333 25.2303 33.1468 25.4168 32.9167 25.4168ZM32.9167 22.9168H20V22.0835H32.9167C33.1468 22.0835 33.3333 22.27 33.3333 22.5002C33.3333 22.7303 33.1468 22.9168 32.9167 22.9168ZM32.9167 20.4168H20V19.5835H32.9167C33.1468 19.5835 33.3333 19.77 33.3333 20.0002C33.3333 20.2303 33.1468 20.4168 32.9167 20.4168ZM32.9167 17.9168H20V17.0835H32.9167C33.1468 17.0835 33.3333 17.27 33.3333 17.5002C33.3333 17.7303 33.1468 17.9168 32.9167 17.9168ZM32.9167 27.9168H20V27.0835H32.9167C33.1468 27.0835 33.3333 27.27 33.3333 27.5002C33.3333 27.7303 33.1468 27.9168 32.9167 27.9168Z" fill="#333333"/>
<path d="M4.99992 30.8332H18.3333C19.2537 30.8332 19.9999 30.087 19.9999 29.1665V15.8332C19.9999 14.9127 19.2537 14.1665 18.3333 14.1665H4.99992C4.07946 14.1665 3.33325 14.9127 3.33325 15.8332V29.1665C3.33325 30.087 4.07946 30.8332 4.99992 30.8332Z" fill="#185ABD"/>
<path d="M9.01013 25.2691C9.03767 25.4866 9.05554 25.6762 9.06413 25.8382H9.09588C9.10863 25.6846 9.13292 25.4995 9.16884 25.282C9.20475 25.0648 9.23979 24.8815 9.27371 24.7324L10.7462 18.3335H12.6505L14.1739 24.6365C14.2501 24.9477 14.3136 25.3437 14.3643 25.8253H14.3896C14.4108 25.4929 14.4637 25.1093 14.5483 24.6747L15.7671 18.3335H17.4999L15.3673 27.5002H13.3423L11.8888 21.4275C11.8464 21.2526 11.7988 21.0249 11.7459 20.7435C11.693 20.4624 11.6602 20.2578 11.6476 20.13H11.6223C11.6053 20.2791 11.5725 20.5006 11.5238 20.7945C11.475 21.0888 11.4358 21.3059 11.4063 21.4466L10.0416 27.5002H7.98504L5.83325 18.3335H7.59779L8.92459 24.7452C8.95413 24.8771 8.98259 25.052 9.01013 25.2691Z" fill="white"/>
</svg>
