<svg width="40" height="40" viewBox="0 0 40 40" fill="none" xmlns="http://www.w3.org/2000/svg">
<path d="M27.988 2.9165H11.2498C10.7896 2.9165 10.4165 3.28959 10.4165 3.74984V36.2498C10.4165 36.7101 10.7896 37.0832 11.2498 37.0832H35.4165C35.8768 37.0832 36.2498 36.7101 36.2498 36.2498V11.1783C36.2498 10.9573 36.162 10.7454 36.0058 10.5891L28.5773 3.16059C28.421 3.0043 28.209 2.9165 27.988 2.9165Z" fill="white" stroke="black" stroke-width="1.66667" stroke-miterlimit="10"/>
<path d="M27.9165 2.9165V10.4165C27.9165 10.8768 28.2896 11.2498 28.7498 11.2498H36.2498" stroke="black" stroke-width="1.66667" stroke-miterlimit="10"/>
<path d="M32.9167 25.4168H20V24.5835H32.9167C33.1468 24.5835 33.3333 24.77 33.3333 25.0002C33.3333 25.2303 33.1468 25.4168 32.9167 25.4168ZM32.9167 22.9168H20V22.0835H32.9167C33.1468 22.0835 33.3333 22.27 33.3333 22.5002C33.3333 22.7303 33.1468 22.9168 32.9167 22.9168ZM32.9167 20.4168H20V19.5835H32.9167C33.1468 19.5835 33.3333 19.77 33.3333 20.0002C33.3333 20.2303 33.1468 20.4168 32.9167 20.4168ZM32.9167 17.9168H20V17.0835H32.9167C33.1468 17.0835 33.3333 17.27 33.3333 17.5002C33.3333 17.7303 33.1468 17.9168 32.9167 17.9168ZM32.9167 27.9168H20V27.0835H32.9167C33.1468 27.0835 33.3333 27.27 33.3333 27.5002C33.3333 27.7303 33.1468 27.9168 32.9167 27.9168Z" fill="#333333"/>
<path d="M5.33325 28.3333H21.3333C22.4378 28.3333 23.3333 27.7364 23.3333 27V16.3333C23.3333 15.597 22.4378 15 21.3333 15H5.33325C4.2287 15 3.33325 15.597 3.33325 16.3333V27C3.33325 27.7364 4.2287 28.3333 5.33325 28.3333Z" fill="#914CB6"/>
<path d="M5.6108 26.1665V25.435L9.43537 19.8384H5.57884V18.8938H10.7777V19.6253L6.95312 25.2219H10.8097V26.1665H5.6108ZM13.283 18.8938V26.1665H12.1857V18.8938H13.283ZM14.881 26.1665V18.8938H17.4734C18.0392 18.8938 18.5079 18.9968 18.8796 19.2027C19.2513 19.4087 19.5295 19.6904 19.7141 20.0479C19.8988 20.403 19.9911 20.8031 19.9911 21.2482C19.9911 21.6956 19.8976 22.0981 19.7106 22.4556C19.5259 22.8107 19.2466 23.0924 18.8725 23.3007C18.5008 23.5067 18.0333 23.6097 17.4698 23.6097H15.6871V22.6793H17.3704C17.7279 22.6793 18.0179 22.6177 18.2404 22.4946C18.4629 22.3692 18.6263 22.1987 18.7305 21.9833C18.8346 21.7678 18.8867 21.5228 18.8867 21.2482C18.8867 20.9736 18.8346 20.7297 18.7305 20.5166C18.6263 20.3036 18.4618 20.1367 18.2369 20.0159C18.0143 19.8952 17.7208 19.8348 17.3562 19.8348H15.9783V26.1665H14.881Z" fill="white"/>
</svg>
