<svg width="32" height="32" viewBox="0 0 32 32" fill="none" xmlns="http://www.w3.org/2000/svg">
<path d="M22.3907 2.33337H9.00016C8.63196 2.33337 8.3335 2.63184 8.3335 3.00004V29C8.3335 29.3682 8.63196 29.6667 9.00016 29.6667H28.3335C28.7017 29.6667 29.0002 29.3682 29.0002 29V8.94284C29.0002 8.76604 28.9299 8.59647 28.8049 8.47144L22.8621 2.52864C22.7371 2.40361 22.5675 2.33337 22.3907 2.33337Z" fill="white" stroke="black" stroke-width="1.33333" stroke-miterlimit="10"/>
<path d="M22.3335 2.33337V8.33337C22.3335 8.70157 22.632 9.00004 23.0002 9.00004H29.0002" stroke="black" stroke-width="1.33333" stroke-miterlimit="10"/>
<path d="M26.3333 20.3333H16V19.6666H26.3333C26.5174 19.6666 26.6667 19.8159 26.6667 20C26.6667 20.1841 26.5174 20.3333 26.3333 20.3333ZM26.3333 18.3333H16V17.6666H26.3333C26.5174 17.6666 26.6667 17.8159 26.6667 18C26.6667 18.1841 26.5174 18.3333 26.3333 18.3333ZM26.3333 16.3333H16V15.6666H26.3333C26.5174 15.6666 26.6667 15.8159 26.6667 16C26.6667 16.1841 26.5174 16.3333 26.3333 16.3333ZM26.3333 14.3333H16V13.6666H26.3333C26.5174 13.6666 26.6667 13.8159 26.6667 14C26.6667 14.1841 26.5174 14.3333 26.3333 14.3333ZM26.3333 22.3333H16V21.6666H26.3333C26.5174 21.6666 26.6667 21.8159 26.6667 22C26.6667 22.1841 26.5174 22.3333 26.3333 22.3333Z" fill="#333333"/>
<path d="M4.53366 22.6667H19.467C20.4979 22.6667 21.3337 22.1891 21.3337 21.6V13.0667C21.3337 12.4776 20.4979 12 19.467 12H4.53366C3.50275 12 2.66699 12.4776 2.66699 13.0667V21.6C2.66699 22.1891 3.50275 22.6667 4.53366 22.6667Z" fill="#ED1C24"/>
<path d="M4.6392 21.3334V15.5152H6.71307C7.16572 15.5152 7.54072 15.5976 7.83807 15.7624C8.13542 15.9271 8.35795 16.1525 8.50568 16.4385C8.65341 16.7226 8.72727 17.0427 8.72727 17.3987C8.72727 17.7567 8.65246 18.0786 8.50284 18.3646C8.35511 18.6487 8.13163 18.8741 7.83239 19.0408C7.53504 19.2055 7.16098 19.2879 6.71023 19.2879H5.28409V18.5436H6.63068C6.91667 18.5436 7.14867 18.4944 7.3267 18.3959C7.50473 18.2955 7.63542 18.1591 7.71875 17.9868C7.80208 17.8144 7.84375 17.6184 7.84375 17.3987C7.84375 17.179 7.80208 16.9839 7.71875 16.8135C7.63542 16.643 7.50379 16.5095 7.32386 16.4129C7.14583 16.3163 6.91098 16.268 6.61932 16.268H5.51705V21.3334H4.6392ZM11.6399 21.3334H9.75639V15.5152H11.6996C12.2696 15.5152 12.7592 15.6317 13.1683 15.8646C13.5774 16.0957 13.8909 16.4281 14.1087 16.8618C14.3284 17.2936 14.4382 17.8116 14.4382 18.4158C14.4382 19.0218 14.3274 19.5427 14.1058 19.9783C13.8861 20.4139 13.5679 20.7491 13.1513 20.9839C12.7346 21.2169 12.2308 21.3334 11.6399 21.3334ZM10.6342 20.5663H11.5916C12.0348 20.5663 12.4032 20.483 12.6967 20.3163C12.9903 20.1478 13.21 19.9044 13.3558 19.5862C13.5017 19.2661 13.5746 18.876 13.5746 18.4158C13.5746 17.9593 13.5017 17.572 13.3558 17.2538C13.2119 16.9356 12.9969 16.6942 12.7109 16.5294C12.425 16.3646 12.0698 16.2822 11.6456 16.2822H10.6342V20.5663ZM15.5298 21.3334V15.5152H19.1378V16.2709H16.4077V18.0436H18.8793V18.7964H16.4077V21.3334H15.5298Z" fill="white"/>
</svg>
