<svg width="16" height="14" viewBox="0 0 16 14" fill="none" xmlns="http://www.w3.org/2000/svg">
<path d="M15.2135 12.759C15.2478 12.7594 15.2818 12.7527 15.3135 12.7393C15.3451 12.726 15.3736 12.7062 15.3973 12.6814C15.421 12.6566 15.4393 12.6271 15.4512 12.5949C15.463 12.5627 15.4681 12.5284 15.4661 12.4941C15.4661 12.3062 15.3528 12.2164 15.1202 12.2164H14.7443V13.2002H14.8857V12.7714H15.0594L15.0634 12.7766L15.3329 13.2002H15.4841L15.1941 12.7618L15.2135 12.759ZM15.05 12.6605H14.8861V12.3279H15.0939C15.2012 12.3279 15.3235 12.3454 15.3235 12.4859C15.3235 12.6475 15.1997 12.6605 15.0492 12.6605H15.05ZM11.5263 11.5261H9.52187V8.38718C9.52187 7.63867 9.50851 6.67511 8.47938 6.67511C7.43543 6.67511 7.27571 7.49064 7.27571 8.33269V11.5259H5.27132V5.07097H7.19553V5.95311H7.22247C7.41504 5.62386 7.6933 5.353 8.02763 5.16938C8.36196 4.98576 8.73983 4.89626 9.121 4.91041C11.1525 4.91041 11.5271 6.24667 11.5271 7.98505L11.5263 11.5261ZM3.00971 4.18862C2.77966 4.18867 2.55476 4.12049 2.36345 3.99271C2.17215 3.86493 2.02303 3.6833 1.93495 3.47077C1.84688 3.25825 1.8238 3.02438 1.86864 2.79874C1.91348 2.5731 2.02422 2.36582 2.18687 2.20312C2.34951 2.04042 2.55675 1.9296 2.78237 1.88468C3.008 1.83975 3.24188 1.86275 3.45443 1.95075C3.66699 2.03875 3.84868 2.1878 3.97652 2.37906C4.10437 2.57032 4.17263 2.79519 4.17267 3.02525C4.1727 3.178 4.14264 3.32925 4.08421 3.47039C4.02578 3.61152 3.94012 3.73976 3.83213 3.84779C3.72414 3.95582 3.59593 4.04152 3.45482 4.1C3.31371 4.15848 3.16246 4.1886 3.00971 4.18862V4.18862ZM4.0119 11.5261H2.00543V5.07097H4.0119V11.5261ZM12.5255 0.000921296H0.998225C0.736588 -0.00203128 0.484482 0.0990098 0.297305 0.281841C0.110127 0.464673 0.00319314 0.714337 0 0.975971V12.5511C0.00308385 12.8128 0.10995 13.0627 0.29712 13.2457C0.484291 13.4287 0.736459 13.53 0.998225 13.5272H12.5255C12.7878 13.5305 13.0407 13.4295 13.2286 13.2465C13.4165 13.0635 13.5241 12.8134 13.5277 12.5511V0.975136C13.524 0.712983 13.4163 0.463035 13.2284 0.280208C13.0405 0.0973812 12.7877 -0.00337135 12.5255 8.61357e-05" fill="white"/>
<path d="M15.0698 11.7781C14.826 11.7804 14.5929 11.8792 14.4217 12.0529C14.2505 12.2266 14.1551 12.461 14.1563 12.7049C14.1574 12.9488 14.2551 13.1823 14.428 13.3543C14.6009 13.5263 14.8348 13.6229 15.0787 13.6229C15.3226 13.6229 15.5565 13.5263 15.7294 13.3543C15.9022 13.1823 16 12.9488 16.0011 12.7049C16.0023 12.461 15.9068 12.2266 15.7356 12.0529C15.5644 11.8792 15.3314 11.7804 15.0876 11.7781H15.0698ZM15.0698 13.5173C14.9099 13.52 14.7527 13.4751 14.6182 13.3885C14.4838 13.3018 14.378 13.1773 14.3143 13.0305C14.2507 12.8837 14.2319 12.7214 14.2605 12.564C14.2891 12.4066 14.3637 12.2612 14.475 12.1462C14.5862 12.0312 14.729 11.9518 14.8854 11.918C15.0417 11.8842 15.2046 11.8975 15.3534 11.9562C15.5022 12.015 15.6302 12.1165 15.7213 12.248C15.8124 12.3796 15.8624 12.5351 15.8651 12.6951V12.7087C15.8696 12.9185 15.7905 13.1215 15.6454 13.2731C15.5002 13.4246 15.3007 13.5123 15.0909 13.5169H15.07" fill="white"/>
</svg>
