<svg width="40" height="40" viewBox="0 0 40 40" fill="none" xmlns="http://www.w3.org/2000/svg">
<path d="M27.9882 2.9165H11.2501C10.7898 2.9165 10.4167 3.28959 10.4167 3.74984V36.2498C10.4167 36.7101 10.7898 37.0832 11.2501 37.0832H35.4167C35.877 37.0832 36.2501 36.7101 36.2501 36.2498V11.1783C36.2501 10.9573 36.1623 10.7454 36.006 10.5891L28.5775 3.16059C28.4212 3.0043 28.2092 2.9165 27.9882 2.9165Z" fill="white" stroke="black" stroke-width="1.66667" stroke-miterlimit="10"/>
<path d="M27.9167 2.9165V10.4165C27.9167 10.8768 28.2898 11.2498 28.7501 11.2498H36.2501" stroke="black" stroke-width="1.66667" stroke-miterlimit="10"/>
<path d="M32.9167 25.4168H20V24.5835H32.9167C33.1468 24.5835 33.3333 24.77 33.3333 25.0002C33.3333 25.2303 33.1468 25.4168 32.9167 25.4168ZM32.9167 22.9168H20V22.0835H32.9167C33.1468 22.0835 33.3333 22.27 33.3333 22.5002C33.3333 22.7303 33.1468 22.9168 32.9167 22.9168ZM32.9167 20.4168H20V19.5835H32.9167C33.1468 19.5835 33.3333 19.77 33.3333 20.0002C33.3333 20.2303 33.1468 20.4168 32.9167 20.4168ZM32.9167 17.9168H20V17.0835H32.9167C33.1468 17.0835 33.3333 17.27 33.3333 17.5002C33.3333 17.7303 33.1468 17.9168 32.9167 17.9168ZM32.9167 27.9168H20V27.0835H32.9167C33.1468 27.0835 33.3333 27.27 33.3333 27.5002C33.3333 27.7303 33.1468 27.9168 32.9167 27.9168Z" fill="#333333"/>
<path d="M5.66659 28.3333H24.3333C25.6219 28.3333 26.6666 27.7364 26.6666 27V16.3333C26.6666 15.597 25.6219 15 24.3333 15H5.66659C4.37794 15 3.33325 15.597 3.33325 16.3333V27C3.33325 27.7364 4.37794 28.3333 5.66659 28.3333Z" fill="black"/>
<path d="M9.76562 20.8043C9.72775 20.4681 9.5715 20.2077 9.29688 20.023C9.02225 19.836 8.67661 19.7425 8.25994 19.7425C7.96165 19.7425 7.7036 19.7898 7.4858 19.8845C7.26799 19.9769 7.09872 20.1047 6.97798 20.2681C6.85961 20.4291 6.80043 20.6125 6.80043 20.8185C6.80043 20.9913 6.84067 21.1405 6.92116 21.2659C7.00402 21.3914 7.11174 21.4968 7.24432 21.582C7.37926 21.6648 7.52367 21.7347 7.67756 21.7915C7.83144 21.846 7.9794 21.8909 8.12145 21.9264L8.83168 22.1111C9.06368 22.1679 9.30161 22.2449 9.54545 22.3419C9.7893 22.439 10.0154 22.5668 10.2237 22.7255C10.4321 22.8841 10.6001 23.0806 10.728 23.3149C10.8582 23.5493 10.9233 23.8299 10.9233 24.1566C10.9233 24.5685 10.8168 24.9343 10.6037 25.2539C10.393 25.5735 10.0864 25.8256 9.68395 26.0103C9.28385 26.1949 8.79972 26.2872 8.23153 26.2872C7.68703 26.2872 7.21591 26.2008 6.81818 26.028C6.42045 25.8552 6.10914 25.6102 5.88423 25.2929C5.65933 24.9733 5.53504 24.5945 5.51136 24.1566H6.61222C6.63352 24.4193 6.71875 24.6383 6.8679 24.8135C7.01941 24.9863 7.21236 25.1154 7.44673 25.2006C7.68348 25.2835 7.94271 25.3249 8.22443 25.3249C8.53456 25.3249 8.81037 25.2764 9.05185 25.1793C9.29569 25.0799 9.48745 24.9425 9.62713 24.7674C9.76681 24.5898 9.83665 24.3826 9.83665 24.1459C9.83665 23.9305 9.77509 23.7541 9.65199 23.6168C9.53125 23.4795 9.36671 23.3658 9.15838 23.2759C8.95241 23.1859 8.71922 23.1066 8.45881 23.038L7.59943 22.8036C7.01705 22.645 6.5554 22.4118 6.21449 22.104C5.87595 21.7962 5.70668 21.389 5.70668 20.8824C5.70668 20.4634 5.82031 20.0976 6.04759 19.7851C6.27486 19.4726 6.58262 19.23 6.97088 19.0571C7.35914 18.8819 7.79711 18.7943 8.2848 18.7943C8.77723 18.7943 9.21165 18.8808 9.58807 19.0536C9.96686 19.2264 10.2652 19.4643 10.483 19.7674C10.7008 20.068 10.8144 20.4137 10.8239 20.8043H9.76562ZM12.8702 18.8938L14.8944 24.8171H14.976L17.0002 18.8938H18.1863L15.5691 26.1665H14.3013L11.6841 18.8938H12.8702ZM23.7971 21.1914C23.7284 20.9759 23.6361 20.783 23.5201 20.6125C23.4064 20.4397 23.2703 20.2929 23.1117 20.1722C22.9531 20.0491 22.772 19.9556 22.5684 19.8916C22.3671 19.8277 22.1458 19.7958 21.9043 19.7958C21.4947 19.7958 21.1254 19.9011 20.7963 20.1118C20.4673 20.3225 20.2069 20.6315 20.0151 21.0387C19.8257 21.4435 19.731 21.9395 19.731 22.5266C19.731 23.1161 19.8269 23.6144 20.0186 24.0216C20.2104 24.4288 20.4732 24.7378 20.807 24.9485C21.1408 25.1592 21.5208 25.2645 21.9469 25.2645C22.3423 25.2645 22.6867 25.184 22.9803 25.023C23.2762 24.8621 23.5047 24.6348 23.6657 24.3412C23.829 24.0453 23.9107 23.6973 23.9107 23.2972L24.1948 23.3505H22.1138V22.4449H24.9725V23.2723C24.9725 23.8831 24.8423 24.4134 24.5819 24.8632C24.3238 25.3107 23.9663 25.6563 23.5094 25.9002C23.0549 26.144 22.534 26.2659 21.9469 26.2659C21.2888 26.2659 20.7111 26.1144 20.214 25.8114C19.7192 25.5084 19.3333 25.0787 19.0563 24.5223C18.7793 23.9636 18.6408 23.3007 18.6408 22.5337C18.6408 21.9537 18.7213 21.4328 18.8823 20.9712C19.0433 20.5095 19.2694 20.1177 19.5605 19.7958C19.8541 19.4714 20.1986 19.224 20.5939 19.0536C20.9917 18.8808 21.4261 18.7943 21.8972 18.7943C22.2902 18.7943 22.656 18.8523 22.9945 18.9684C23.3354 19.0844 23.6384 19.2489 23.9036 19.462C24.1711 19.675 24.3925 19.9283 24.5676 20.2219C24.7428 20.5131 24.8612 20.8362 24.9228 21.1914H23.7971Z" fill="white"/>
</svg>
